<svg width="16" height="16" viewBox="0 0 16 16" fill="none" xmlns="http://www.w3.org/2000/svg">
<path d="M16 0H0V16H16V0Z" fill="white" fill-opacity="0.01"/>
<path d="M16 0H0V16H16V0Z" fill="white" fill-opacity="0.01"/>
<path d="M6.09452 14.3904C4.97749 14.0578 3.98319 13.4404 3.19588 12.6223C3.48959 12.2742 3.66659 11.8244 3.66659 11.3333C3.66659 10.2288 2.77116 9.33333 1.66659 9.33333C1.59977 9.33333 1.53372 9.3366 1.46858 9.343C1.37985 8.9092 1.33325 8.46003 1.33325 8C1.33325 7.30313 1.44018 6.63123 1.63852 5.9998C1.64786 5.99993 1.65721 6 1.66659 6C2.77116 6 3.66659 5.10457 3.66659 4C3.66659 3.6829 3.59279 3.38303 3.46145 3.11666C4.23242 2.39979 5.17342 1.8633 6.21729 1.57434C6.54805 2.22269 7.22215 2.66667 7.99992 2.66667C8.77769 2.66667 9.45179 2.22269 9.78255 1.57434C10.8264 1.8633 11.7674 2.39979 12.5384 3.11666C12.4071 3.38303 12.3333 3.6829 12.3333 4C12.3333 5.10457 13.2287 6 14.3333 6C14.3426 6 14.352 5.99993 14.3613 5.9998C14.5597 6.63123 14.6666 7.30313 14.6666 8C14.6666 8.46003 14.62 8.9092 14.5313 9.343C14.4661 9.3366 14.4001 9.33333 14.3333 9.33333C13.2287 9.33333 12.3333 10.2288 12.3333 11.3333C12.3333 11.8244 12.5103 12.2742 12.804 12.6223C12.0167 13.4404 11.0224 14.0578 9.90532 14.3904C9.64752 13.5839 8.89192 13 7.99992 13C7.10792 13 6.35232 13.5839 6.09452 14.3904Z" stroke="currentColor" stroke-width="1.33333"/>
<path d="M8.00008 10.3333C9.28875 10.3333 10.3334 9.28863 10.3334 7.99996C10.3334 6.71129 9.28875 5.66663 8.00008 5.66663C6.71141 5.66663 5.66675 6.71129 5.66675 7.99996C5.66675 9.28863 6.71141 10.3333 8.00008 10.3333Z" stroke="currentColor" stroke-width="1.33333"/>
</svg>
