<svg width="16" height="15" viewBox="0 0 16 15" fill="none" xmlns="http://www.w3.org/2000/svg">
<path d="M14 7.90329C14.1447 7.90329 14.2834 7.96076 14.3857 8.06305C14.488 8.16534 14.5455 8.30408 14.5455 8.44874V12.5215C14.5455 13.584 13.6811 14.4487 12.6182 14.4487H2.65457C2.1436 14.4482 1.65373 14.2449 1.29242 13.8836C0.931109 13.5223 0.727872 13.0324 0.727295 12.5215V2.5582C0.727872 2.04723 0.931109 1.55736 1.29242 1.19605C1.65373 0.83474 2.1436 0.631503 2.65457 0.630926H8.18184C8.3265 0.630926 8.46524 0.688393 8.56753 0.790686C8.66983 0.892978 8.72729 1.03172 8.72729 1.17638C8.72729 1.32104 8.66983 1.45978 8.56753 1.56207C8.46524 1.66437 8.3265 1.72183 8.18184 1.72183H2.65457C2.43284 1.72212 2.22027 1.81033 2.06349 1.96712C1.9067 2.1239 1.81849 2.33647 1.8182 2.5582V12.5218C1.8182 12.9829 2.19348 13.3582 2.65457 13.3582H12.6182C13.0793 13.3582 13.4546 12.9829 13.4546 12.5218V8.44911C13.4546 8.30444 13.512 8.16571 13.6143 8.06341C13.7166 7.96112 13.8554 7.90365 14 7.90365V7.90329ZM15.264 3.31056C15.3797 3.41056 15.4546 3.55674 15.4546 3.72147C15.4546 3.88656 15.38 4.03238 15.264 4.13311L12.2037 7.19274C12.153 7.24347 12.0929 7.28368 12.0267 7.31108C11.9605 7.33848 11.8895 7.35251 11.8178 7.35238C11.71 7.35229 11.6047 7.32024 11.5151 7.2603C11.4254 7.20036 11.3556 7.11521 11.3144 7.0156C11.2731 6.91599 11.2623 6.80639 11.2833 6.70064C11.3043 6.5949 11.3562 6.49775 11.4324 6.42147L13.5378 4.31493C8.80002 4.62911 6.90911 6.68474 6.90911 11.3578C6.90911 11.4295 6.895 11.5004 6.86759 11.5666C6.84018 11.6327 6.8 11.6929 6.74935 11.7435C6.6987 11.7942 6.63857 11.8344 6.5724 11.8618C6.50622 11.8892 6.43529 11.9033 6.36366 11.9033C6.29203 11.9033 6.2211 11.8892 6.15492 11.8618C6.08875 11.8344 6.02861 11.7942 5.97796 11.7435C5.92731 11.6929 5.88714 11.6327 5.85972 11.5666C5.83231 11.5004 5.8182 11.4295 5.8182 11.3578C5.8182 6.02474 8.17093 3.53638 13.6247 3.21347L11.4327 1.0222C11.3806 0.971906 11.339 0.911738 11.3104 0.845204C11.2818 0.77867 11.2667 0.707103 11.2661 0.634678C11.2654 0.562254 11.2792 0.490422 11.3066 0.423375C11.334 0.356328 11.3744 0.295408 11.4256 0.24417C11.4768 0.192932 11.5377 0.152402 11.6047 0.124944C11.6717 0.0974868 11.7436 0.0836519 11.816 0.0842469C11.8884 0.0848419 11.96 0.0998549 12.0265 0.12841C12.0931 0.156965 12.1533 0.19849 12.2037 0.250562L15.264 3.31056Z" fill="currentColor"/>
</svg>
