<svg width="16" height="16" viewBox="0 0 16 16" fill="none" xmlns="http://www.w3.org/2000/svg">
<path d="M7.99996 6.66667C9.28863 6.66667 10.3333 5.622 10.3333 4.33333C10.3333 3.04467 9.28863 2 7.99996 2C6.71129 2 5.66663 3.04467 5.66663 4.33333C5.66663 5.622 6.71129 6.66667 7.99996 6.66667Z" stroke="currentColor" stroke-width="1.33333" stroke-linecap="square"/>
<path d="M4 2.41827C3.3955 2.83992 3 3.54045 3 4.33338C3 5.18215 3.4532 5.92508 4.1308 6.33338" stroke="currentColor" stroke-width="1.33333" stroke-linecap="square"/>
<path d="M12 2.41827C12.6045 2.83992 13 3.54045 13 4.33338C13 5.12628 12.6045 5.82685 12 6.24848" stroke="currentColor" stroke-width="1.33333" stroke-linecap="square"/>
<path d="M4 13.3333V14H12V13.3333C12 12.0908 12 11.4695 11.797 10.9795C11.5264 10.3261 11.0072 9.80695 10.3538 9.53631C9.86377 9.33331 9.2425 9.33331 8 9.33331C6.7575 9.33331 6.13623 9.33331 5.64617 9.53631C4.99277 9.80695 4.47363 10.3261 4.203 10.9795C4 11.4695 4 12.0908 4 13.3333Z" stroke="currentColor" stroke-width="1.33333" stroke-linecap="square"/>
<path d="M14.6666 14V13.6C14.6666 12.1066 14.6666 11.3598 14.376 10.7894C14.1203 10.2876 13.7123 9.87969 13.2106 9.62402" stroke="currentColor" stroke-width="1.33333" stroke-linecap="square"/>
<path d="M1.33337 14V13.6C1.33337 12.1066 1.33337 11.3598 1.62402 10.7894C1.87968 10.2876 2.28763 9.87969 2.7894 9.62402" stroke="currentColor" stroke-width="1.33333" stroke-linecap="square"/>
</svg>
