<svg width="16" height="16" viewBox="0 0 16 16" fill="none" xmlns="http://www.w3.org/2000/svg">
<path d="M4.60001 1.23193C4.93601 1.23193 5.20801 1.49593 5.22401 1.82393C5.24001 2.15193 4.98401 2.43993 4.64801 2.46393H2.44001V14.7679H13.568V2.46393H11.56C11.224 2.46393 10.952 2.19993 10.936 1.87193C10.92 1.54393 11.176 1.25593 11.512 1.23193H13.568C14.224 1.23193 14.768 1.74393 14.8 2.39993V14.7679C14.8 15.4239 14.28 15.9679 13.624 15.9999H2.44001C1.78401 15.9999 1.24001 15.4879 1.20801 14.8319V2.46393C1.20801 1.80793 1.72801 1.26393 2.38401 1.23193H4.60001Z" fill="currentColor"/>
<path d="M10.16 0H5.84001C4.81601 0 3.98401 0.832 3.98401 1.848C3.98401 2.864 4.81601 3.696 5.84001 3.696H10.16C11.184 3.696 12.016 2.864 12.016 1.848C12.016 0.832 11.184 0 10.16 0ZM5.84001 1.232H10.16C10.496 1.232 10.776 1.512 10.776 1.848C10.776 2.184 10.496 2.464 10.16 2.464H5.84001C5.50401 2.464 5.22401 2.184 5.22401 1.848C5.22401 1.512 5.49601 1.232 5.84001 1.232Z" fill="currentColor"/>
<path d="M10.96 6.33594L11.84 7.20794L7.82398 11.2079C7.58398 11.4479 7.19198 11.4479 6.95198 11.2079L4.47998 8.74394L5.35198 7.87194L7.38398 9.89594L10.96 6.33594Z" fill="currentColor"/>
</svg>
