<svg width="20" height="24" viewBox="0 0 20 24" fill="none" xmlns="http://www.w3.org/2000/svg">
<path d="M13.9412 14.1452C12.6815 14.1452 12.0758 14.8897 10.0084 14.8897C7.94108 14.8897 7.33975 14.1452 6.07564 14.1452C2.81881 14.1452 0.176483 16.9463 0.176483 20.3989V21.5901C0.176483 22.8231 1.12017 23.8235 2.28333 23.8235H17.7335C18.8967 23.8235 19.8403 22.8231 19.8403 21.5901V20.3989C19.8403 16.9463 17.198 14.1452 13.9412 14.1452ZM17.7335 21.5901H2.28333V20.3989C2.28333 18.1841 3.98636 16.3787 6.07564 16.3787C6.71647 16.3787 7.75673 17.1232 10.0084 17.1232C12.2777 17.1232 13.296 16.3787 13.9412 16.3787C16.0305 16.3787 17.7335 18.1841 17.7335 20.3989V21.5901ZM10.0084 13.4007C13.4979 13.4007 16.3289 10.3995 16.3289 6.70037C16.3289 3.00121 13.4979 0 10.0084 0C6.51896 0 3.68789 3.00121 3.68789 6.70037C3.68789 10.3995 6.51896 13.4007 10.0084 13.4007ZM10.0084 2.23346C12.3303 2.23346 14.2221 4.23891 14.2221 6.70037C14.2221 9.16182 12.3303 11.1673 10.0084 11.1673C7.6865 11.1673 5.79473 9.16182 5.79473 6.70037C5.79473 4.23891 7.6865 2.23346 10.0084 2.23346Z" fill="url(#paint0_linear_294:2896)"/>
<defs>
<linearGradient id="paint0_linear_294:2896" x1="10.0084" y1="0" x2="10.0084" y2="23.8235" gradientUnits="userSpaceOnUse">
<stop offset="0.0989583" stop-color="#7ABAF7"/>
<stop offset="0.984375" stop-color="#3D72F3"/>
</linearGradient>
</defs>
</svg>
